{"asset":{"generator":"Khronos glTF Blender I/O v3.4.50","version":"2.0"},"scene":0,"scenes":[{"name":"Scene","nodes":[0]}],"nodes":[{"mesh":0,"name":"sun","rotation":[0,-0.992749810218811,0,0.12019892781972885],"scale":[61.65382385253906,61.65382385253906,61.65382385253906],"translation":[402.6148681640625,0,0]}],"materials":[{"name":"sun","pbrMetallicRoughness":{"baseColorFactor":[0.08235294117647059,0.07058823529411765,0,1],"roughnessFactor":1,"metallicFactor":0},"extras":{"p3d":{"glow_diffuse":0.22641509433962265}},"occlusionTexture":{"index":0,"strength":0},"emissiveTexture":{"index":0,"extensions":{"KHR_texture_transform":{"offset":[-2,-2],"scale":[0.8611111111111112,1]}}},"emissiveFactor":[4.477556798762816,1.1375005023189413,0],"alphaMode":"OPAQUE","doubleSided":true}],"meshes":[{"name":"Sphere.007","primitives":[{"attributes":{"POSITION":0,"TEXCOORD_0":1,"NORMAL":2},"indices":3,"material":0}]}],"accessors":[{"bufferView":0,"componentType":5126,"count":2143,"max":[0.7292664051055908,0.7292659878730774,0.7292667627334595],"min":[-0.7292661666870117,-0.7292659878730774,-0.7292659878730774],"type":"VEC3"},{"bufferView":1,"componentType":5126,"count":2143,"type":"VEC2"},{"bufferView":2,"componentType":5126,"count":2143,"type":"VEC3"},{"bufferView":3,"componentType":5123,"count":11904,"type":"SCALAR"}],"bufferViews":[{"buffer":0,"byteLength":25716,"byteOffset":0,"target":34962},{"buffer":0,"byteLength":17144,"byteOffset":25716,"target":34962},{"buffer":0,"byteLength":25716,"byteOffset":42860,"target":34962},{"buffer":0,"byteLength":23808,"byteOffset":68576,"target":34963}],"buffers":[{"byteLength":92384,"uri":"sun.bin"}],"images":[{"uri":"sun_occlusion.jpg"}],"textures":[{"name":" texture","source":0}],"extensionsUsed":["KHR_texture_transform"]}