<svg width="27" height="27" viewBox="0 0 27 27" fill="none" xmlns="http://www.w3.org/2000/svg">
<path d="M21.8101 10.8074L14.331 5.19714C14.1904 5.09166 14.0193 5.03464 13.8435 5.03464C13.6677 5.03464 13.4966 5.09166 13.356 5.19714L5.87694 10.8074C5.77604 10.8831 5.69413 10.9813 5.63772 11.0941C5.58131 11.2069 5.55194 11.3313 5.55194 11.4574V22.2799C5.55194 22.4954 5.63755 22.7021 5.78992 22.8545C5.94229 23.0068 6.14896 23.0924 6.36444 23.0924H10.9998C11.2152 23.0924 11.4219 23.0068 11.5743 22.8545C11.7267 22.7021 11.8123 22.4954 11.8123 22.2799V18.8471C11.8123 18.6316 11.8979 18.425 12.0502 18.2726C12.2026 18.1202 12.4093 18.0346 12.6248 18.0346H15.4685C15.684 18.0346 15.8907 18.1202 16.043 18.2726C16.1954 18.425 16.281 18.6316 16.281 18.8471V22.2799C16.281 22.4954 16.3666 22.7021 16.519 22.8545C16.6714 23.0068 16.878 23.0924 17.0935 23.0924H21.3226C21.5381 23.0924 21.7447 23.0068 21.8971 22.8545C22.0495 22.7021 22.1351 22.4954 22.1351 22.2799V11.4574C22.1351 11.3313 22.1057 11.2069 22.0493 11.0941C21.9929 10.9813 21.911 10.8831 21.8101 10.8074Z" stroke="#FFFEFE" stroke-width="2.22214"/>
</svg>
