<svg width="42" height="53" viewBox="0 0 42 53" fill="none" xmlns="http://www.w3.org/2000/svg">
<g clip-path="url(#clip0_8_117)">
<path d="M39.1458 41.4382C39.1335 38.1402 38.2279 34.9104 36.5197 32.0899L31.2804 23.4336L31.3481 41.6297L39.1464 41.6007L39.1458 41.4382ZM10.4849 23.5111L5.31018 32.2061C3.62295 35.0393 2.74143 38.2757 2.75371 41.5737L2.75432 41.7362L10.5526 41.7071L10.4849 23.5111ZM10.5623 44.3066L2.764 44.3356L2.76884 45.6353C2.77685 47.788 4.52985 49.528 6.68251 49.52L10.5817 49.5055L10.5792 48.8556C10.5859 50.6508 12.0454 52.0995 13.8406 52.0928L15.1404 52.0879L26.8378 52.0444L28.1375 52.0395C29.9328 52.0329 31.3814 50.5734 31.3747 48.7782L31.3772 49.428L35.2763 49.4135C37.429 49.4055 39.169 47.6525 39.1609 45.4998L39.1561 44.2001L31.3578 44.2291L31.3554 43.5793C31.3475 41.451 30.3169 39.5702 28.7366 38.3901L28.6495 14.9952C28.6285 9.36575 26.7647 4.03565 21.9667 0.462992C21.2743 -0.0543245 20.3157 -0.0507551 19.6272 0.471703C14.856 4.07999 13.0319 9.42383 13.0528 15.0532L13.14 38.4482C11.5685 39.64 10.552 41.5284 10.5599 43.6567L10.5623 44.3066ZM19.8269 10.4789L21.8496 10.4714C23.4418 10.4655 24.7463 11.7522 24.7523 13.3525C24.753 13.5556 24.5911 13.7105 24.3962 13.7113L17.3046 13.7377C17.1015 13.7384 16.9466 13.5765 16.9458 13.3816C16.9399 11.7894 18.2267 10.4849 19.8269 10.4789Z" fill="#0A0A0A"/>
</g>
<defs>
<clipPath id="clip0_8_117">
<rect width="51.9891" height="41.5913" fill="white" transform="translate(0.193604 52.1436) rotate(-90.2134)"/>
</clipPath>
</defs>
</svg>
