<svg xmlns="http://www.w3.org/2000/svg" viewBox="0 0 94.42 144.92"><defs><style>.cls-1{fill:#fffefe;}</style></defs><g id="Layer_2" data-name="Layer 2"><g id="Layer_1-2" data-name="Layer 1"><path class="cls-1" d="M62.91,103.29a31,31,0,0,1-15.6,3.25A2.43,2.43,0,0,0,45,107.7c-7,9.34-14.31,18.41-22.78,26.47-3.8,3.62-7.74,7.07-12.5,9.42a11.81,11.81,0,0,1-3.92,1.28c-2.88.34-4.76-1.12-5.45-4.22a18.79,18.79,0,0,1-.13-6.39C1.09,127,3.44,120.16,6,113.39a252.7,252.7,0,0,1,13-28,2.45,2.45,0,0,0,.39-1.87c-2.54-9.58.07-18,6-25.53A28.41,28.41,0,0,1,41.1,47.65,3.08,3.08,0,0,0,43,46.23,265.32,265.32,0,0,1,67,16,84.66,84.66,0,0,1,81.27,3.31,20,20,0,0,1,87.82.2C91-.55,93.27.84,94,4.06c.92,4.06.17,8.06-.74,12C90.8,26.67,86.55,36.61,82,46.42c-2.26,4.84-4.49,9.69-6.77,14.51a1.83,1.83,0,0,0,.08,1.84c6.83,13.64,3.28,29-8.87,38.29A20.07,20.07,0,0,1,62.91,103.29ZM50.43,46.64c.75.13,1.3.25,1.86.32a30.8,30.8,0,0,1,8.27,2.13A6.38,6.38,0,0,1,64.7,54.9a24.84,24.84,0,0,1-1.27,9.57A73.8,73.8,0,0,1,46.3,93.32a29.45,29.45,0,0,1-9.66,7.21c-2.63,1.13-5.07,1.08-7.28-1-1-1-2.08-2-3-3a47.78,47.78,0,0,1-5-7.33A86.65,86.65,0,0,0,18,98.62c-1.21,4.17-2.28,8.38-2.1,12.77.27,6.36,3.89,8.46,9.59,5.67,5.36-2.63,9.65-6.61,13.71-10.84,10-10.45,18-22.38,25.06-34.94,5-8.83,9.09-18,11.31-28,.86-3.87,1.53-7.78.56-11.74-.76-3.08-3-4.38-6-3.47a11.25,11.25,0,0,0-2.5,1.06C60.36,33.45,55.44,40,50.43,46.64Z"/></g></g></svg>