<svg width="51" height="50" viewBox="0 0 51 50" fill="none" xmlns="http://www.w3.org/2000/svg">
<path d="M32.6177 17.8823H46.8542V32.1188H32.6177V17.8823Z" stroke="#F8F8F8" stroke-width="1.04167" stroke-linecap="round" stroke-linejoin="round"/>
<path d="M18.3823 17.8823H32.6188V32.1188H18.3823M18.3823 17.8823V32.1188M18.3823 17.8823H4.14584V32.1188H18.3823M42.8417 26.5438V26.5823C42.8417 27.4059 42.5145 28.1957 41.9322 28.778C41.3498 29.3604 40.56 29.6875 39.7365 29.6875C39.3286 29.6877 38.9247 29.6075 38.5478 29.4515C38.171 29.2955 37.8285 29.0668 37.5401 28.7784C37.2516 28.49 37.0228 28.1477 36.8667 27.7709C36.7106 27.3941 36.6302 26.9902 36.6302 26.5823V23.4167C36.6302 23.0088 36.7106 22.605 36.8667 22.2281C37.0228 21.8513 37.2516 21.509 37.5401 21.2206C37.8285 20.9323 38.171 20.7036 38.5478 20.5476C38.9247 20.3916 39.3286 20.3114 39.7365 20.3115C40.5598 20.3118 41.3494 20.639 41.9315 21.2214C42.5136 21.8037 42.8406 22.5933 42.8406 23.4167V23.4552" stroke="#F8F8F8" stroke-width="1.04167" stroke-linecap="round" stroke-linejoin="round"/>
<path d="M12.026 25C12.6476 25 13.2438 25.2469 13.6833 25.6865C14.1229 26.126 14.3698 26.7221 14.3698 27.3437C14.3698 27.9654 14.1229 28.5615 13.6833 29.001C13.2438 29.4406 12.6476 29.6875 12.026 29.6875H8.15833V20.3125H12.026C12.6476 20.3125 13.2438 20.5594 13.6833 20.999C14.1229 21.4385 14.3698 22.0346 14.3698 22.6562C14.3698 23.2779 14.1229 23.874 13.6833 24.3135C13.2438 24.7531 12.6476 25 12.026 25ZM12.026 25H8.15833M26.2615 25C26.8831 25 27.4792 25.2469 27.9187 25.6865C28.3583 26.126 28.6052 26.7221 28.6052 27.3437C28.6052 27.9654 28.3583 28.5615 27.9187 29.001C27.4792 29.4406 26.8831 29.6875 26.2615 29.6875H22.3958V20.3125H26.2625C26.8841 20.3125 27.4802 20.5594 27.9198 20.999C28.3593 21.4385 28.6062 22.0346 28.6062 22.6562C28.6062 23.2779 28.3593 23.874 27.9198 24.3135C27.4802 24.7531 26.8831 25 26.2615 25ZM26.2615 25H22.3948" stroke="#F8F8F8" stroke-width="0.902083" stroke-linecap="round" stroke-linejoin="round"/>
</svg>
