<svg width="39" height="37" viewBox="0 0 39 37" fill="none" xmlns="http://www.w3.org/2000/svg">
<path d="M2.54167 21.3628V15.6371C2.54167 14.8193 2.86652 14.0351 3.44476 13.4568C4.023 12.8786 4.80725 12.5537 5.62501 12.5537H10.0958C10.3973 12.5537 10.6921 12.4652 10.9438 12.2994L20.1938 6.20053C20.4262 6.04748 20.6957 5.96018 20.9737 5.94791C21.2517 5.93564 21.5278 5.99885 21.7728 6.13083C22.0178 6.26281 22.2225 6.45864 22.3652 6.69755C22.5079 6.93646 22.5833 7.20954 22.5833 7.48782V29.5121C22.5833 29.7904 22.5079 30.0634 22.3652 30.3023C22.2225 30.5413 22.0178 30.7371 21.7728 30.8691C21.5278 31.0011 21.2517 31.0643 20.9737 31.052C20.6957 31.0397 20.4262 30.9524 20.1938 30.7994L10.9438 24.7005C10.6921 24.5347 10.3973 24.4462 10.0958 24.4462H5.62501C4.80725 24.4462 4.023 24.1213 3.44476 23.5431C2.86652 22.9648 2.54167 22.1806 2.54167 21.3628Z" stroke="#F8F8F8" stroke-width="3.125"/>
<path d="M27.9792 11.5625C27.9792 11.5625 30.2917 13.875 30.2917 17.7292C30.2917 21.5833 27.9792 23.8958 27.9792 23.8958M32.6042 6.9375C32.6042 6.9375 36.4583 10.7917 36.4583 17.7292C36.4583 24.6667 32.6042 28.5208 32.6042 28.5208" stroke="#F8F8F8" stroke-width="3.125" stroke-linecap="round" stroke-linejoin="round"/>
</svg>
