<svg width="24" height="37" viewBox="0 0 24 37" fill="none" xmlns="http://www.w3.org/2000/svg">
<g clip-path="url(#clip0_148_26)">
<path d="M15.697 26.2651C14.4967 26.8704 13.1596 27.1502 11.8185 27.0767C11.7053 27.0658 11.5914 27.0872 11.4898 27.1385C11.3882 27.1897 11.3031 27.2687 11.2442 27.3664C9.5038 29.6988 7.68637 31.9639 5.58053 33.9767C4.63577 34.8807 3.65619 35.7422 2.47275 36.3291C2.16906 36.4922 1.83917 36.6004 1.49815 36.6488C0.782115 36.7337 0.314704 36.3691 0.143155 35.5949C0.0417344 35.0687 0.0308026 34.529 0.110834 33.9991C0.327135 32.1861 0.911399 30.478 1.54787 28.7873C2.48236 26.3925 3.56174 24.0574 4.77997 21.7949C4.82644 21.7276 4.85897 21.6515 4.87563 21.5713C4.89229 21.4911 4.89273 21.4083 4.87693 21.3279C4.24543 18.9356 4.89434 16.8328 6.36867 14.9524C7.341 13.6712 8.71847 12.7606 10.2745 12.3702C10.3727 12.3454 10.465 12.3013 10.5461 12.2404C10.6272 12.1795 10.6954 12.1031 10.7469 12.0156C12.5508 9.35699 14.545 6.83389 16.7139 4.46632C17.7737 3.27895 18.9639 2.21584 20.2617 1.29727C20.7529 0.940888 21.3048 0.677679 21.8902 0.520618C22.6808 0.333322 23.2452 0.680444 23.4267 1.48457C23.6554 2.49846 23.4689 3.49737 23.2427 4.4813C22.6311 7.13092 21.5744 9.61321 20.4432 12.063C19.8813 13.2717 19.3269 14.4829 18.76 15.6866C18.7226 15.7581 18.7047 15.8383 18.7082 15.919C18.7117 15.9998 18.7365 16.0781 18.7799 16.1461C20.478 19.5524 19.5954 23.3882 16.5746 25.7082C16.3022 25.9239 16.008 26.1106 15.697 26.2651ZM12.5942 12.118C12.7807 12.1504 12.9174 12.1804 13.0566 12.1979C13.7633 12.2784 14.4553 12.4575 15.1127 12.7298C15.4087 12.8412 15.6648 13.0388 15.8482 13.2973C16.0315 13.5558 16.1339 13.8634 16.142 14.1807C16.1934 14.9904 16.0861 15.8024 15.8263 16.5706C14.9762 19.2688 13.5189 21.734 11.5674 23.7753C10.899 24.5354 10.0813 25.1484 9.16568 25.5758C8.5118 25.858 7.90516 25.8455 7.3557 25.3261C7.10708 25.0764 6.83857 24.8266 6.60983 24.5769C6.13983 24.0068 5.72367 23.394 5.36672 22.7464C5.0434 23.5137 4.76448 24.2992 4.53135 25.0988C4.23051 26.1402 3.96449 27.1916 4.00924 28.2879C4.07637 29.8761 4.97638 30.4006 6.39353 29.7038C7.72615 29.047 8.79274 28.0531 9.80215 26.9968C12.2884 24.3871 14.2774 21.4079 16.0326 18.2713C17.2758 16.0662 18.2926 13.7762 18.8446 11.2789C19.0584 10.3124 19.225 9.33601 18.9838 8.34709C18.7948 7.57793 18.2379 7.25328 17.4921 7.48053C17.275 7.54324 17.0663 7.63212 16.8705 7.74525C15.063 8.82407 13.8398 10.4598 12.5942 12.118Z" fill="#FFFEFE"/>
</g>
<defs>
<clipPath id="clip0_148_26">
<rect width="23.475" height="36.1906" fill="white" transform="translate(0.0556641 0.470596)"/>
</clipPath>
</defs>
</svg>
