<svg width="120" height="185" viewBox="0 0 120 185" fill="none" xmlns="http://www.w3.org/2000/svg">
<g clip-path="url(#clip0_8_104)">
<path d="M79.9537 131.857C73.8178 134.951 66.9832 136.381 60.1274 136.005C59.5489 135.95 58.9666 136.059 58.4472 136.321C57.9279 136.583 57.4927 136.987 57.1916 137.486C48.2952 149.409 39.0048 160.988 28.2401 171.277C23.4106 175.898 18.4032 180.302 12.3536 183.302C10.8012 184.136 9.11486 184.689 7.37164 184.936C3.7114 185.37 1.32208 183.506 0.445146 179.549C-0.0732966 176.859 -0.129178 174.1 0.279927 171.392C1.38562 162.124 4.37228 153.392 7.62583 144.75C12.4028 132.508 17.9204 120.571 24.1478 109.006C24.3853 108.662 24.5516 108.273 24.6367 107.863C24.7219 107.453 24.7242 107.03 24.6434 106.619C21.4153 94.3894 24.7324 83.6407 32.2689 74.0281C37.2393 67.479 44.2807 62.8238 52.235 60.8285C52.7368 60.7016 53.2086 60.4761 53.6231 60.1649C54.0376 59.8538 54.3865 59.4632 54.6498 59.0157C63.8708 45.4254 74.0651 32.5278 85.1518 20.4251C90.5695 14.3555 96.6535 8.92106 103.288 4.22549C105.799 2.40372 108.62 1.05824 111.612 0.255372C115.654 -0.702053 118.539 1.07237 119.467 5.18292C120.636 10.3658 119.683 15.472 118.526 20.5017C115.4 34.0461 109.998 46.7352 104.216 59.2583C101.343 65.4369 98.5091 71.6282 95.6114 77.7813C95.4201 78.1469 95.3288 78.5569 95.3466 78.9695C95.3645 79.3821 95.4909 79.7826 95.7131 80.1301C104.393 97.5425 99.8817 117.151 84.4401 129.01C83.0472 130.113 81.5436 131.067 79.9537 131.857ZM64.0927 59.5391C65.0459 59.7051 65.7449 59.8583 66.4566 59.9476C70.0688 60.3594 73.6063 61.2745 76.9671 62.6667C78.4799 63.2359 79.7889 64.2459 80.7264 65.5674C81.6639 66.8889 82.187 68.4615 82.2287 70.0836C82.4912 74.2226 81.9429 78.3733 80.6146 82.3003C76.2691 96.0927 68.8196 108.695 58.8438 119.129C55.427 123.015 51.2471 126.148 46.5667 128.333C43.2242 129.776 40.1232 129.712 37.3145 127.057C36.0435 125.78 34.6709 124.504 33.5017 123.227C31.0991 120.313 28.9718 117.18 27.1471 113.87C25.4944 117.792 24.0686 121.807 22.8768 125.895C21.339 131.218 19.9791 136.593 20.2079 142.197C20.5511 150.316 25.1518 152.997 32.396 149.435C39.2081 146.078 44.6604 140.997 49.8203 135.597C62.5295 122.257 72.6968 107.027 81.6695 90.9937C88.024 79.7216 93.2221 68.0155 96.0435 55.2499C97.1365 50.3095 97.988 45.3182 96.7552 40.263C95.7893 36.3311 92.9425 34.6716 89.1297 35.8333C88.0201 36.1538 86.9533 36.6082 85.9524 37.1864C76.7129 42.7012 70.46 51.0627 64.0927 59.5391Z" fill="#FFFEFE"/>
</g>
<defs>
<clipPath id="clip0_8_104">
<rect width="120" height="185" fill="white"/>
</clipPath>
</defs>
</svg>
